# xmcd CD database file
#
# Track frame offsets:
#	150
#	31114
#	70039
#	93370
#	125620
#	155739
#	167509
#	224392
#
# Disc length: 3483 seconds
#
# Revision: 0
# Processed by: cddbd v1.5.2PL0 Copyright (c) Steve Scherf et al.
# Submitted via: CDex 1.51
#
DISCID=650d9908
DTITLE=Andromeda Mega Express Orchestra - Take Off
DYEAR=2009
DGENRE=Jazz
TTITLE0=Gamma Pluto Delta
TTITLE1=Asteroids!
TTITLE2=Lava Lovers
TTITLE3=Radioactive People
TTITLE4=Scene 3
TTITLE5=Cotton Candy Nebula
TTITLE6=Milky Way Fables
TTITLE7=Postludium
EXTD=YEAR: 2009
EXTT0=
EXTT1=
EXTT2=
EXTT3=
EXTT4=
EXTT5=
EXTT6=
EXTT7=
PLAYORDER=
